<?xml version="1.0" encoding="UTF-8"?>
<svg xmlns="http://www.w3.org/2000/svg" version="1.1" width="250" height="250" viewBox="0 0 250 250"><rect x="0" y="0" width="250" height="250" fill="#ffffff"/><g transform="scale(11.905)"><g transform="translate(0,0)"><path fill-rule="evenodd" d="M9 0L9 1L8 1L8 3L9 3L9 4L8 4L8 8L6 8L6 9L8 9L8 11L7 11L7 10L5 10L5 9L4 9L4 8L3 8L3 10L2 10L2 8L0 8L0 12L1 12L1 13L2 13L2 11L3 11L3 13L4 13L4 12L5 12L5 13L7 13L7 12L8 12L8 15L10 15L10 17L8 17L8 18L9 18L9 19L8 19L8 21L10 21L10 20L11 20L11 21L13 21L13 20L16 20L16 18L15 18L15 19L13 19L13 18L12 18L12 16L13 16L13 17L15 17L15 16L16 16L16 17L17 17L17 19L19 19L19 18L20 18L20 20L21 20L21 15L18 15L18 17L17 17L17 16L16 16L16 13L17 13L17 14L21 14L21 13L20 13L20 12L19 12L19 11L20 11L20 10L21 10L21 9L20 9L20 8L18 8L18 9L17 9L17 8L14 8L14 9L13 9L13 10L12 10L12 11L11 11L11 12L8 12L8 11L10 11L10 9L11 9L11 8L13 8L13 4L12 4L12 3L13 3L13 2L12 2L12 1L13 1L13 0L11 0L11 2L12 2L12 3L11 3L11 4L12 4L12 5L11 5L11 6L10 6L10 7L9 7L9 4L10 4L10 0ZM11 6L11 7L12 7L12 6ZM8 8L8 9L9 9L9 8ZM14 9L14 10L15 10L15 12L13 12L13 11L12 11L12 12L11 12L11 13L12 13L12 14L10 14L10 15L14 15L14 16L15 16L15 13L16 13L16 12L18 12L18 13L19 13L19 12L18 12L18 10L19 10L19 9L18 9L18 10L17 10L17 9L16 9L16 10L15 10L15 9ZM3 10L3 11L5 11L5 12L7 12L7 11L5 11L5 10ZM12 12L12 13L13 13L13 12ZM19 16L19 17L20 17L20 16ZM11 18L11 20L13 20L13 19L12 19L12 18ZM9 19L9 20L10 20L10 19ZM17 20L17 21L19 21L19 20ZM0 0L0 7L7 7L7 0ZM1 1L1 6L6 6L6 1ZM2 2L2 5L5 5L5 2ZM14 0L14 7L21 7L21 0ZM15 1L15 6L20 6L20 1ZM16 2L16 5L19 5L19 2ZM0 14L0 21L7 21L7 14ZM1 15L1 20L6 20L6 15ZM2 16L2 19L5 19L5 16Z" fill="#ff0000" fill-opacity="0.25"/></g></g></svg>
