<?xml version="1.0" encoding="UTF-8"?>
<svg xmlns="http://www.w3.org/2000/svg" version="1.1" width="250" height="250" viewBox="0 0 250 250"><rect x="0" y="0" width="250" height="250" fill="#ffffff"/><g transform="scale(11.905)"><g transform="translate(0,0)"><path fill-rule="evenodd" d="M9 0L9 2L8 2L8 3L9 3L9 4L10 4L10 5L11 5L11 4L12 4L12 7L11 7L11 6L10 6L10 7L9 7L9 6L8 6L8 8L4 8L4 9L3 9L3 8L0 8L0 9L3 9L3 10L0 10L0 13L1 13L1 12L3 12L3 13L5 13L5 12L4 12L4 9L7 9L7 10L5 10L5 11L7 11L7 12L6 12L6 13L8 13L8 17L10 17L10 18L8 18L8 21L9 21L9 20L10 20L10 21L11 21L11 17L12 17L12 16L14 16L14 18L15 18L15 19L14 19L14 21L16 21L16 19L19 19L19 20L18 20L18 21L19 21L19 20L20 20L20 21L21 21L21 18L20 18L20 17L21 17L21 13L20 13L20 12L21 12L21 11L20 11L20 12L19 12L19 10L21 10L21 9L19 9L19 8L18 8L18 9L17 9L17 10L16 10L16 9L15 9L15 8L13 8L13 4L12 4L12 3L13 3L13 2L12 2L12 1L13 1L13 0L11 0L11 1L10 1L10 0ZM10 2L10 4L11 4L11 2ZM10 7L10 8L11 8L11 7ZM12 8L12 9L10 9L10 10L7 10L7 11L9 11L9 12L8 12L8 13L9 13L9 12L11 12L11 13L10 13L10 14L11 14L11 13L12 13L12 15L14 15L14 16L15 16L15 17L16 17L16 18L18 18L18 15L20 15L20 13L19 13L19 12L18 12L18 13L19 13L19 14L18 14L18 15L16 15L16 14L15 14L15 12L16 12L16 13L17 13L17 11L18 11L18 10L19 10L19 9L18 9L18 10L17 10L17 11L16 11L16 10L15 10L15 9L14 9L14 10L13 10L13 8ZM12 10L12 11L13 11L13 12L12 12L12 13L13 13L13 14L14 14L14 15L15 15L15 16L16 16L16 17L17 17L17 16L16 16L16 15L15 15L15 14L14 14L14 13L13 13L13 12L14 12L14 11L15 11L15 10L14 10L14 11L13 11L13 10ZM9 15L9 16L10 16L10 15ZM12 18L12 19L13 19L13 18ZM19 18L19 19L20 19L20 18ZM12 20L12 21L13 21L13 20ZM0 0L0 7L7 7L7 0ZM1 1L1 6L6 6L6 1ZM2 2L2 5L5 5L5 2ZM14 0L14 7L21 7L21 0ZM15 1L15 6L20 6L20 1ZM16 2L16 5L19 5L19 2ZM0 14L0 21L7 21L7 14ZM1 15L1 20L6 20L6 15ZM2 16L2 19L5 19L5 16Z" fill="#000000"/></g></g></svg>
