<?xml version="1.0" encoding="UTF-8"?>
<svg xmlns="http://www.w3.org/2000/svg" version="1.1" width="250" height="250" viewBox="0 0 250 250"><rect x="0" y="0" width="250" height="250" fill="#ffffff"/><g transform="scale(11.905)"><g transform="translate(0,0)"><path fill-rule="evenodd" d="M8 0L8 1L9 1L9 0ZM10 0L10 2L8 2L8 5L9 5L9 6L8 6L8 7L9 7L9 6L10 6L10 7L11 7L11 8L8 8L8 9L11 9L11 10L9 10L9 12L10 12L10 14L9 14L9 13L8 13L8 10L4 10L4 12L3 12L3 13L4 13L4 12L5 12L5 13L8 13L8 14L9 14L9 15L10 15L10 19L9 19L9 17L8 17L8 21L9 21L9 20L10 20L10 19L11 19L11 18L12 18L12 19L13 19L13 21L14 21L14 19L15 19L15 16L16 16L16 15L17 15L17 17L16 17L16 18L17 18L17 19L19 19L19 18L20 18L20 17L21 17L21 15L20 15L20 13L21 13L21 11L20 11L20 12L19 12L19 11L18 11L18 10L19 10L19 8L16 8L16 9L15 9L15 10L14 10L14 11L15 11L15 12L14 12L14 14L12 14L12 13L13 13L13 12L12 12L12 10L13 10L13 9L14 9L14 8L13 8L13 5L12 5L12 4L13 4L13 3L12 3L12 1L13 1L13 0ZM10 2L10 4L9 4L9 5L11 5L11 4L12 4L12 3L11 3L11 2ZM11 6L11 7L12 7L12 6ZM0 8L0 9L4 9L4 8ZM6 8L6 9L7 9L7 8ZM20 8L20 10L21 10L21 8ZM16 9L16 10L15 10L15 11L17 11L17 12L18 12L18 13L19 13L19 12L18 12L18 11L17 11L17 10L18 10L18 9ZM1 10L1 11L0 11L0 12L2 12L2 10ZM6 11L6 12L7 12L7 11ZM11 12L11 13L12 13L12 12ZM15 12L15 14L14 14L14 15L11 15L11 14L10 14L10 15L11 15L11 17L12 17L12 18L13 18L13 19L14 19L14 16L15 16L15 15L16 15L16 12ZM18 15L18 17L19 17L19 16L20 16L20 15ZM12 16L12 17L13 17L13 16ZM15 20L15 21L16 21L16 20ZM19 20L19 21L20 21L20 20ZM0 0L0 7L7 7L7 0ZM1 1L1 6L6 6L6 1ZM2 2L2 5L5 5L5 2ZM14 0L14 7L21 7L21 0ZM15 1L15 6L20 6L20 1ZM16 2L16 5L19 5L19 2ZM0 14L0 21L7 21L7 14ZM1 15L1 20L6 20L6 15ZM2 16L2 19L5 19L5 16Z" fill="#000000" fill-opacity="0.05"/></g></g></svg>
