<?xml version="1.0" encoding="UTF-8"?>
<svg xmlns="http://www.w3.org/2000/svg" version="1.1" width="250" height="250" viewBox="0 0 250 250"><rect x="0" y="0" width="250" height="250" fill="#ffffff"/><g transform="scale(3.623)"><g transform="translate(0,0)"><path fill-rule="evenodd" d="M13 0L13 1L11 1L11 2L10 2L10 1L8 1L8 2L10 2L10 3L8 3L8 4L10 4L10 5L8 5L8 7L9 7L9 6L10 6L10 8L11 8L11 9L9 9L9 8L6 8L6 9L7 9L7 10L5 10L5 8L0 8L0 12L1 12L1 9L2 9L2 11L3 11L3 13L5 13L5 14L3 14L3 15L2 15L2 16L1 16L1 14L0 14L0 16L1 16L1 18L0 18L0 19L2 19L2 21L1 21L1 20L0 20L0 23L1 23L1 24L0 24L0 27L2 27L2 28L4 28L4 30L3 30L3 29L1 29L1 30L0 30L0 35L1 35L1 34L2 34L2 35L3 35L3 36L1 36L1 39L2 39L2 40L4 40L4 41L5 41L5 42L3 42L3 41L1 41L1 40L0 40L0 42L2 42L2 43L1 43L1 44L0 44L0 45L1 45L1 46L2 46L2 47L3 47L3 46L4 46L4 48L1 48L1 47L0 47L0 49L4 49L4 51L3 51L3 52L4 52L4 51L5 51L5 52L6 52L6 53L8 53L8 54L9 54L9 53L8 53L8 52L10 52L10 53L11 53L11 52L15 52L15 54L16 54L16 53L17 53L17 54L18 54L18 55L19 55L19 56L16 56L16 55L13 55L13 56L12 56L12 55L11 55L11 54L10 54L10 55L9 55L9 56L8 56L8 55L7 55L7 54L5 54L5 53L4 53L4 54L5 54L5 55L7 55L7 56L6 56L6 57L5 57L5 58L4 58L4 56L3 56L3 54L1 54L1 52L0 52L0 55L2 55L2 56L0 56L0 61L1 61L1 57L3 57L3 58L2 58L2 59L3 59L3 58L4 58L4 59L7 59L7 60L6 60L6 61L8 61L8 63L10 63L10 65L9 65L9 64L8 64L8 69L10 69L10 67L11 67L11 69L13 69L13 68L14 68L14 69L15 69L15 65L17 65L17 62L16 62L16 64L15 64L15 63L12 63L12 62L13 62L13 61L11 61L11 60L13 60L13 58L14 58L14 59L15 59L15 61L14 61L14 62L15 62L15 61L19 61L19 63L20 63L20 61L21 61L21 64L20 64L20 65L21 65L21 64L23 64L23 65L22 65L22 67L21 67L21 66L19 66L19 68L18 68L18 69L19 69L19 68L20 68L20 69L22 69L22 67L23 67L23 68L25 68L25 69L26 69L26 68L28 68L28 69L32 69L32 68L33 68L33 69L37 69L37 68L36 68L36 65L37 65L37 66L38 66L38 67L39 67L39 68L38 68L38 69L39 69L39 68L41 68L41 69L43 69L43 68L45 68L45 69L51 69L51 67L52 67L52 68L53 68L53 69L56 69L56 68L57 68L57 69L58 69L58 68L59 68L59 66L60 66L60 67L62 67L62 66L63 66L63 65L64 65L64 66L65 66L65 69L68 69L68 68L67 68L67 65L66 65L66 64L67 64L67 63L68 63L68 64L69 64L69 63L68 63L68 62L69 62L69 60L68 60L68 58L69 58L69 56L67 56L67 55L68 55L68 53L67 53L67 54L66 54L66 55L65 55L65 54L64 54L64 53L65 53L65 52L68 52L68 51L69 51L69 49L68 49L68 51L66 51L66 50L67 50L67 49L65 49L65 48L64 48L64 47L65 47L65 46L66 46L66 48L69 48L69 47L68 47L68 46L69 46L69 45L68 45L68 43L67 43L67 41L68 41L68 42L69 42L69 39L68 39L68 38L69 38L69 36L68 36L68 38L67 38L67 37L65 37L65 36L67 36L67 35L68 35L68 34L69 34L69 33L68 33L68 32L67 32L67 31L68 31L68 30L69 30L69 29L68 29L68 30L65 30L65 31L63 31L63 30L64 30L64 29L63 29L63 27L64 27L64 28L65 28L65 29L66 29L66 28L67 28L67 27L66 27L66 26L69 26L69 24L68 24L68 22L69 22L69 19L65 19L65 18L64 18L64 16L67 16L67 17L66 17L66 18L67 18L67 17L68 17L68 18L69 18L69 15L68 15L68 14L69 14L69 11L68 11L68 13L66 13L66 12L67 12L67 11L64 11L64 12L65 12L65 13L66 13L66 14L67 14L67 15L65 15L65 14L62 14L62 12L63 12L63 10L64 10L64 8L63 8L63 10L62 10L62 8L61 8L61 6L60 6L60 8L58 8L58 7L59 7L59 4L58 4L58 5L57 5L57 4L56 4L56 3L59 3L59 2L58 2L58 1L61 1L61 0L58 0L58 1L57 1L57 0L53 0L53 1L52 1L52 0L51 0L51 1L50 1L50 2L51 2L51 1L52 1L52 3L51 3L51 5L50 5L50 7L49 7L49 6L48 6L48 5L46 5L46 4L50 4L50 3L49 3L49 0L47 0L47 1L45 1L45 2L44 2L44 1L43 1L43 0L42 0L42 1L41 1L41 0L39 0L39 3L41 3L41 4L39 4L39 5L40 5L40 7L39 7L39 6L38 6L38 4L37 4L37 2L38 2L38 0L37 0L37 1L36 1L36 0L35 0L35 1L34 1L34 0L33 0L33 1L34 1L34 2L33 2L33 3L32 3L32 4L31 4L31 2L29 2L29 3L28 3L28 0L24 0L24 1L27 1L27 4L26 4L26 3L25 3L25 2L24 2L24 3L25 3L25 4L24 4L24 5L25 5L25 6L24 6L24 8L23 8L23 9L22 9L22 7L23 7L23 6L22 6L22 7L21 7L21 6L20 6L20 7L19 7L19 6L18 6L18 7L17 7L17 5L18 5L18 4L19 4L19 5L20 5L20 4L21 4L21 5L23 5L23 4L21 4L21 3L23 3L23 0L22 0L22 1L21 1L21 3L20 3L20 4L19 4L19 3L18 3L18 0ZM29 0L29 1L30 1L30 0ZM13 1L13 2L14 2L14 3L15 3L15 2L17 2L17 1L15 1L15 2L14 2L14 1ZM40 1L40 2L41 2L41 3L43 3L43 5L41 5L41 7L42 7L42 6L43 6L43 8L44 8L44 10L41 10L41 9L42 9L42 8L39 8L39 9L38 9L38 8L37 8L37 9L34 9L34 10L37 10L37 11L38 11L38 10L39 10L39 12L40 12L40 15L41 15L41 14L42 14L42 15L46 15L46 16L43 16L43 17L45 17L45 18L42 18L42 17L41 17L41 16L40 16L40 17L41 17L41 18L42 18L42 20L39 20L39 21L38 21L38 19L39 19L39 17L38 17L38 18L37 18L37 17L36 17L36 18L35 18L35 17L34 17L34 16L35 16L35 15L36 15L36 14L37 14L37 16L39 16L39 15L38 15L38 14L39 14L39 13L34 13L34 14L33 14L33 11L32 11L32 10L33 10L33 9L30 9L30 8L32 8L32 5L31 5L31 4L30 4L30 5L29 5L29 4L27 4L27 5L26 5L26 4L25 4L25 5L26 5L26 6L25 6L25 7L26 7L26 9L25 9L25 8L24 8L24 9L23 9L23 11L22 11L22 9L20 9L20 8L21 8L21 7L20 7L20 8L19 8L19 9L18 9L18 10L19 10L19 9L20 9L20 12L19 12L19 13L16 13L16 12L18 12L18 11L17 11L17 10L16 10L16 12L15 12L15 11L14 11L14 12L12 12L12 14L13 14L13 15L12 15L12 18L13 18L13 19L14 19L14 20L16 20L16 22L15 22L15 21L12 21L12 19L11 19L11 21L10 21L10 23L11 23L11 22L12 22L12 25L9 25L9 23L6 23L6 22L8 22L8 20L7 20L7 19L6 19L6 18L7 18L7 17L6 17L6 16L7 16L7 15L9 15L9 16L10 16L10 18L11 18L11 16L10 16L10 15L11 15L11 13L10 13L10 11L9 11L9 9L8 9L8 11L5 11L5 10L4 10L4 9L3 9L3 11L4 11L4 12L5 12L5 13L6 13L6 14L7 14L7 15L6 15L6 16L5 16L5 17L3 17L3 16L2 16L2 17L3 17L3 19L4 19L4 20L3 20L3 21L2 21L2 22L3 22L3 23L2 23L2 25L1 25L1 26L3 26L3 27L6 27L6 28L5 28L5 29L6 29L6 30L4 30L4 32L5 32L5 31L6 31L6 32L7 32L7 31L9 31L9 33L10 33L10 34L11 34L11 36L13 36L13 37L14 37L14 36L15 36L15 35L16 35L16 36L17 36L17 37L16 37L16 39L15 39L15 38L13 38L13 39L15 39L15 40L16 40L16 42L14 42L14 41L13 41L13 40L11 40L11 39L9 39L9 37L10 37L10 36L9 36L9 37L6 37L6 38L5 38L5 41L6 41L6 42L7 42L7 43L6 43L6 44L4 44L4 43L3 43L3 45L2 45L2 46L3 46L3 45L4 45L4 46L5 46L5 47L6 47L6 48L7 48L7 47L8 47L8 48L9 48L9 49L6 49L6 50L5 50L5 51L6 51L6 52L8 52L8 51L6 51L6 50L9 50L9 51L10 51L10 52L11 52L11 50L17 50L17 53L18 53L18 54L19 54L19 55L21 55L21 53L25 53L25 52L26 52L26 53L27 53L27 54L28 54L28 56L29 56L29 57L27 57L27 56L26 56L26 57L27 57L27 58L25 58L25 59L27 59L27 58L28 58L28 60L26 60L26 61L25 61L25 60L21 60L21 59L20 59L20 58L22 58L22 59L24 59L24 57L25 57L25 54L24 54L24 57L23 57L23 54L22 54L22 57L20 57L20 56L19 56L19 57L20 57L20 58L17 58L17 57L16 57L16 56L15 56L15 57L14 57L14 56L13 56L13 57L12 57L12 56L9 56L9 57L11 57L11 59L10 59L10 58L9 58L9 59L8 59L8 58L7 58L7 57L6 57L6 58L7 58L7 59L8 59L8 60L9 60L9 62L11 62L11 61L10 61L10 60L11 60L11 59L12 59L12 58L13 58L13 57L14 57L14 58L17 58L17 59L16 59L16 60L17 60L17 59L19 59L19 61L20 61L20 60L21 60L21 61L25 61L25 62L24 62L24 65L25 65L25 63L26 63L26 66L25 66L25 67L27 67L27 65L28 65L28 68L29 68L29 65L28 65L28 64L27 64L27 63L29 63L29 64L31 64L31 65L30 65L30 68L32 68L32 67L34 67L34 68L35 68L35 65L32 65L32 64L31 64L31 63L32 63L32 62L31 62L31 61L32 61L32 60L34 60L34 59L37 59L37 61L38 61L38 62L37 62L37 65L38 65L38 66L40 66L40 67L41 67L41 68L43 68L43 66L42 66L42 65L41 65L41 64L40 64L40 63L41 63L41 62L42 62L42 63L43 63L43 65L44 65L44 67L45 67L45 68L47 68L47 67L48 67L48 68L49 68L49 67L50 67L50 66L51 66L51 65L52 65L52 66L53 66L53 68L54 68L54 67L55 67L55 68L56 68L56 66L59 66L59 64L58 64L58 63L57 63L57 62L60 62L60 60L61 60L61 59L63 59L63 60L65 60L65 59L67 59L67 58L68 58L68 57L67 57L67 56L65 56L65 57L63 57L63 56L62 56L62 55L63 55L63 53L64 53L64 50L65 50L65 49L64 49L64 48L63 48L63 50L62 50L62 49L61 49L61 52L62 52L62 55L61 55L61 54L59 54L59 53L60 53L60 52L59 52L59 53L58 53L58 51L57 51L57 50L59 50L59 49L60 49L60 48L62 48L62 47L63 47L63 46L62 46L62 47L60 47L60 46L61 46L61 45L60 45L60 44L62 44L62 43L64 43L64 44L65 44L65 43L66 43L66 42L65 42L65 41L67 41L67 40L65 40L65 39L66 39L66 38L65 38L65 37L64 37L64 38L62 38L62 39L61 39L61 40L59 40L59 38L61 38L61 37L60 37L60 34L59 34L59 33L60 33L60 32L63 32L63 31L62 31L62 30L63 30L63 29L62 29L62 30L59 30L59 28L58 28L58 27L57 27L57 28L56 28L56 25L57 25L57 26L59 26L59 23L60 23L60 25L61 25L61 23L62 23L62 22L63 22L63 23L64 23L64 24L63 24L63 25L62 25L62 26L61 26L61 27L62 27L62 26L63 26L63 25L64 25L64 27L65 27L65 26L66 26L66 25L65 25L65 23L67 23L67 22L68 22L68 20L63 20L63 19L64 19L64 18L63 18L63 17L62 17L62 16L63 16L63 15L62 15L62 14L61 14L61 16L60 16L60 17L62 17L62 18L63 18L63 19L61 19L61 18L59 18L59 17L58 17L58 15L57 15L57 14L59 14L59 13L61 13L61 12L62 12L62 10L59 10L59 9L57 9L57 7L58 7L58 6L57 6L57 7L56 7L56 6L55 6L55 5L52 5L52 6L51 6L51 7L50 7L50 8L52 8L52 9L54 9L54 8L56 8L56 9L55 9L55 10L51 10L51 9L48 9L48 12L47 12L47 13L46 13L46 11L45 11L45 10L47 10L47 7L48 7L48 8L49 8L49 7L48 7L48 6L47 6L47 7L46 7L46 5L45 5L45 7L46 7L46 9L45 9L45 8L44 8L44 4L45 4L45 3L43 3L43 1L42 1L42 2L41 2L41 1ZM54 1L54 2L55 2L55 1ZM11 2L11 3L12 3L12 4L11 4L11 5L10 5L10 6L11 6L11 7L12 7L12 9L13 9L13 10L15 10L15 7L16 7L16 9L17 9L17 7L16 7L16 5L17 5L17 3L16 3L16 4L13 4L13 3L12 3L12 2ZM34 2L34 3L36 3L36 2ZM46 2L46 3L47 3L47 2ZM52 3L52 4L54 4L54 3ZM60 3L60 5L61 5L61 3ZM12 4L12 5L13 5L13 6L12 6L12 7L13 7L13 8L14 8L14 7L15 7L15 6L14 6L14 5L13 5L13 4ZM27 5L27 6L26 6L26 7L27 7L27 6L28 6L28 7L29 7L29 6L28 6L28 5ZM30 5L30 7L31 7L31 5ZM33 5L33 8L36 8L36 5ZM13 6L13 7L14 7L14 6ZM34 6L34 7L35 7L35 6ZM37 6L37 7L38 7L38 6ZM52 6L52 8L53 8L53 6ZM54 6L54 7L55 7L55 6ZM27 8L27 9L26 9L26 10L27 10L27 9L29 9L29 10L30 10L30 9L29 9L29 8ZM65 8L65 10L66 10L66 8ZM67 8L67 9L68 9L68 10L69 10L69 9L68 9L68 8ZM24 9L24 10L25 10L25 9ZM37 9L37 10L38 10L38 9ZM56 9L56 10L57 10L57 11L54 11L54 13L52 13L52 12L53 12L53 11L52 11L52 12L50 12L50 13L51 13L51 14L49 14L49 12L48 12L48 13L47 13L47 14L46 14L46 15L48 15L48 14L49 14L49 15L51 15L51 16L50 16L50 17L49 17L49 16L46 16L46 17L49 17L49 18L48 18L48 19L49 19L49 20L47 20L47 22L49 22L49 20L51 20L51 22L50 22L50 24L51 24L51 26L48 26L48 27L52 27L52 28L51 28L51 30L48 30L48 29L49 29L49 28L48 28L48 29L47 29L47 28L46 28L46 27L47 27L47 26L45 26L45 25L46 25L46 24L47 24L47 25L49 25L49 23L44 23L44 24L43 24L43 23L42 23L42 22L44 22L44 21L40 21L40 23L39 23L39 22L38 22L38 23L37 23L37 22L35 22L35 20L33 20L33 21L34 21L34 22L35 22L35 23L36 23L36 24L34 24L34 23L33 23L33 22L32 22L32 23L33 23L33 24L32 24L32 26L31 26L31 27L27 27L27 25L29 25L29 24L28 24L28 23L29 23L29 22L28 22L28 23L27 23L27 21L26 21L26 20L27 20L27 18L28 18L28 17L29 17L29 16L30 16L30 17L31 17L31 18L29 18L29 19L28 19L28 21L31 21L31 20L29 20L29 19L35 19L35 18L34 18L34 17L33 17L33 18L32 18L32 15L33 15L33 14L32 14L32 13L31 13L31 11L30 11L30 12L29 12L29 11L28 11L28 12L27 12L27 13L26 13L26 11L25 11L25 13L24 13L24 12L23 12L23 13L22 13L22 11L21 11L21 12L20 12L20 13L19 13L19 14L18 14L18 17L16 17L16 16L15 16L15 15L17 15L17 14L15 14L15 15L14 15L14 16L13 16L13 18L16 18L16 19L17 19L17 18L18 18L18 19L19 19L19 18L18 18L18 17L22 17L22 19L21 19L21 20L20 20L20 21L19 21L19 20L17 20L17 23L20 23L20 21L21 21L21 20L25 20L25 21L24 21L24 22L25 22L25 23L26 23L26 24L25 24L25 25L24 25L24 23L23 23L23 25L22 25L22 24L20 24L20 25L19 25L19 24L17 24L17 25L16 25L16 23L15 23L15 22L14 22L14 24L13 24L13 25L12 25L12 27L14 27L14 28L12 28L12 30L13 30L13 29L14 29L14 30L15 30L15 29L17 29L17 30L18 30L18 33L17 33L17 32L16 32L16 31L15 31L15 33L14 33L14 31L10 31L10 32L11 32L11 34L13 34L13 35L15 35L15 33L17 33L17 35L18 35L18 37L19 37L19 38L17 38L17 39L16 39L16 40L17 40L17 43L16 43L16 44L14 44L14 45L19 45L19 46L18 46L18 48L17 48L17 46L15 46L15 47L14 47L14 46L12 46L12 45L13 45L13 44L12 44L12 43L13 43L13 41L11 41L11 40L9 40L9 41L8 41L8 42L9 42L9 43L10 43L10 42L12 42L12 43L11 43L11 44L10 44L10 45L11 45L11 46L9 46L9 44L6 44L6 45L5 45L5 46L6 46L6 47L7 47L7 46L9 46L9 47L10 47L10 48L11 48L11 47L14 47L14 48L13 48L13 49L14 49L14 48L15 48L15 49L17 49L17 50L18 50L18 51L19 51L19 52L18 52L18 53L19 53L19 52L20 52L20 53L21 53L21 52L22 52L22 51L25 51L25 50L27 50L27 53L29 53L29 54L30 54L30 55L31 55L31 56L30 56L30 57L29 57L29 58L30 58L30 60L28 60L28 61L29 61L29 62L30 62L30 63L31 63L31 62L30 62L30 61L31 61L31 60L32 60L32 59L33 59L33 58L32 58L32 57L31 57L31 56L33 56L33 55L34 55L34 56L35 56L35 57L34 57L34 58L36 58L36 57L37 57L37 59L38 59L38 57L39 57L39 58L40 58L40 60L38 60L38 61L39 61L39 63L38 63L38 64L39 64L39 63L40 63L40 60L41 60L41 59L42 59L42 62L43 62L43 60L45 60L45 61L44 61L44 64L45 64L45 65L47 65L47 64L45 64L45 62L46 62L46 63L48 63L48 62L49 62L49 61L51 61L51 60L48 60L48 59L51 59L51 58L49 58L49 57L52 57L52 56L53 56L53 55L51 55L51 54L52 54L52 52L53 52L53 54L55 54L55 55L54 55L54 57L53 57L53 58L54 58L54 59L55 59L55 61L54 61L54 60L53 60L53 59L52 59L52 60L53 60L53 63L51 63L51 62L50 62L50 63L49 63L49 64L48 64L48 66L50 66L50 65L51 65L51 64L54 64L54 62L57 62L57 61L59 61L59 60L60 60L60 59L61 59L61 55L59 55L59 54L57 54L57 53L56 53L56 52L57 52L57 51L56 51L56 50L57 50L57 49L56 49L56 48L58 48L58 47L59 47L59 48L60 48L60 47L59 47L59 46L58 46L58 44L60 44L60 43L61 43L61 42L62 42L62 40L64 40L64 41L65 41L65 40L64 40L64 39L62 39L62 40L61 40L61 41L60 41L60 43L59 43L59 42L57 42L57 41L56 41L56 42L57 42L57 43L56 43L56 44L55 44L55 43L54 43L54 44L53 44L53 43L52 43L52 42L53 42L53 41L54 41L54 42L55 42L55 40L58 40L58 41L59 41L59 40L58 40L58 39L57 39L57 38L56 38L56 36L57 36L57 35L58 35L58 36L59 36L59 34L57 34L57 35L56 35L56 32L57 32L57 33L59 33L59 32L60 32L60 31L59 31L59 30L58 30L58 28L57 28L57 31L56 31L56 28L53 28L53 26L55 26L55 24L54 24L54 23L53 23L53 22L55 22L55 23L56 23L56 24L57 24L57 23L59 23L59 22L57 22L57 23L56 23L56 19L52 19L52 18L55 18L55 17L56 17L56 18L57 18L57 19L58 19L58 20L59 20L59 18L57 18L57 17L56 17L56 15L54 15L54 17L52 17L52 16L53 16L53 14L56 14L56 12L57 12L57 13L58 13L58 12L59 12L59 10L57 10L57 9ZM49 10L49 11L51 11L51 10ZM8 11L8 12L6 12L6 13L7 13L7 14L10 14L10 13L9 13L9 11ZM34 11L34 12L36 12L36 11ZM40 11L40 12L41 12L41 11ZM42 11L42 14L43 14L43 13L44 13L44 14L45 14L45 13L44 13L44 12L45 12L45 11L44 11L44 12L43 12L43 11ZM57 11L57 12L58 12L58 11ZM60 11L60 12L61 12L61 11ZM20 13L20 14L19 14L19 16L21 16L21 13ZM23 13L23 16L22 16L22 17L23 17L23 18L24 18L24 17L25 17L25 19L26 19L26 17L28 17L28 16L29 16L29 15L30 15L30 14L31 14L31 15L32 15L32 14L31 14L31 13L28 13L28 15L27 15L27 14L26 14L26 13L25 13L25 14L24 14L24 13ZM25 14L25 15L24 15L24 16L27 16L27 15L26 15L26 14ZM14 16L14 17L15 17L15 16ZM5 17L5 18L4 18L4 19L5 19L5 18L6 18L6 17ZM50 17L50 18L51 18L51 17ZM36 18L36 19L37 19L37 18ZM45 18L45 19L43 19L43 20L46 20L46 19L47 19L47 18ZM60 19L60 20L61 20L61 19ZM5 20L5 21L7 21L7 20ZM36 20L36 21L37 21L37 20ZM52 20L52 21L53 21L53 20ZM18 21L18 22L19 22L19 21ZM22 21L22 22L21 22L21 23L22 23L22 22L23 22L23 21ZM25 21L25 22L26 22L26 21ZM60 21L60 23L61 23L61 22L62 22L62 21ZM63 21L63 22L64 22L64 21ZM66 21L66 22L67 22L67 21ZM4 22L4 23L5 23L5 25L7 25L7 24L6 24L6 23L5 23L5 22ZM38 23L38 24L37 24L37 25L35 25L35 26L34 26L34 24L33 24L33 26L34 26L34 28L35 28L35 29L33 29L33 27L32 27L32 29L28 29L28 28L27 28L27 27L25 27L25 26L24 26L24 25L23 25L23 26L22 26L22 25L20 25L20 26L22 26L22 27L25 27L25 28L21 28L21 27L19 27L19 25L17 25L17 27L19 27L19 28L21 28L21 29L20 29L20 30L22 30L22 31L23 31L23 30L24 30L24 29L25 29L25 28L26 28L26 30L27 30L27 31L26 31L26 32L22 32L22 33L27 33L27 31L28 31L28 32L29 32L29 33L28 33L28 34L25 34L25 35L26 35L26 36L24 36L24 34L21 34L21 33L18 33L18 34L19 34L19 37L20 37L20 38L19 38L19 41L18 41L18 42L19 42L19 41L20 41L20 44L21 44L21 45L20 45L20 46L19 46L19 47L20 47L20 46L21 46L21 47L22 47L22 49L23 49L23 47L24 47L24 46L23 46L23 47L22 47L22 45L25 45L25 48L24 48L24 49L28 49L28 50L29 50L29 51L28 51L28 52L31 52L31 53L32 53L32 54L31 54L31 55L32 55L32 54L33 54L33 53L35 53L35 51L39 51L39 50L40 50L40 51L41 51L41 50L42 50L42 53L43 53L43 54L40 54L40 53L41 53L41 52L36 52L36 54L37 54L37 57L38 57L38 56L39 56L39 55L38 55L38 54L40 54L40 55L44 55L44 53L45 53L45 52L43 52L43 51L46 51L46 54L45 54L45 56L44 56L44 59L45 59L45 58L48 58L48 57L45 57L45 56L46 56L46 54L47 54L47 51L46 51L46 50L48 50L48 51L49 51L49 53L48 53L48 54L49 54L49 55L47 55L47 56L49 56L49 55L50 55L50 56L51 56L51 55L50 55L50 54L51 54L51 52L50 52L50 50L51 50L51 51L52 51L52 50L53 50L53 51L54 51L54 53L55 53L55 52L56 52L56 51L55 51L55 50L56 50L56 49L55 49L55 48L56 48L56 47L57 47L57 46L56 46L56 45L57 45L57 44L58 44L58 43L57 43L57 44L56 44L56 45L55 45L55 44L54 44L54 45L55 45L55 46L53 46L53 44L52 44L52 47L54 47L54 49L55 49L55 50L53 50L53 48L51 48L51 47L50 47L50 50L48 50L48 48L49 48L49 47L48 47L48 44L49 44L49 46L51 46L51 45L50 45L50 44L51 44L51 43L48 43L48 44L47 44L47 43L45 43L45 42L47 42L47 41L46 41L46 38L47 38L47 36L49 36L49 37L48 37L48 40L49 40L49 42L51 42L51 41L50 41L50 40L52 40L52 41L53 41L53 40L54 40L54 39L53 39L53 38L52 38L52 39L50 39L50 38L51 38L51 37L50 37L50 36L52 36L52 37L54 37L54 36L52 36L52 35L55 35L55 36L56 36L56 35L55 35L55 34L53 34L53 33L54 33L54 32L55 32L55 30L52 30L52 31L53 31L53 32L52 32L52 33L50 33L50 34L49 34L49 33L47 33L47 31L45 31L45 32L42 32L42 31L43 31L43 30L47 30L47 29L46 29L46 28L44 28L44 27L43 27L43 26L42 26L42 27L43 27L43 28L42 28L42 29L41 29L41 28L40 28L40 27L41 27L41 26L40 26L40 25L42 25L42 24L39 24L39 23ZM51 23L51 24L52 24L52 25L54 25L54 24L52 24L52 23ZM14 24L14 25L13 25L13 26L16 26L16 25L15 25L15 24ZM26 24L26 25L27 25L27 24ZM30 24L30 25L31 25L31 24ZM44 24L44 25L45 25L45 24ZM67 24L67 25L68 25L68 24ZM8 25L8 26L6 26L6 27L7 27L7 28L6 28L6 29L8 29L8 30L10 30L10 28L8 28L8 26L9 26L9 27L11 27L11 26L9 26L9 25ZM37 25L37 26L35 26L35 27L36 27L36 29L37 29L37 26L38 26L38 27L40 27L40 26L38 26L38 25ZM15 27L15 28L14 28L14 29L15 29L15 28L16 28L16 27ZM68 27L68 28L69 28L69 27ZM38 28L38 29L39 29L39 30L35 30L35 32L32 32L32 31L34 31L34 30L32 30L32 31L31 31L31 30L30 30L30 31L31 31L31 32L30 32L30 33L31 33L31 34L28 34L28 35L27 35L27 36L28 36L28 37L29 37L29 38L28 38L28 41L29 41L29 44L28 44L28 43L27 43L27 42L26 42L26 40L25 40L25 41L24 41L24 38L25 38L25 39L26 39L26 38L27 38L27 37L26 37L26 38L25 38L25 37L21 37L21 36L20 36L20 37L21 37L21 38L20 38L20 39L21 39L21 40L20 40L20 41L22 41L22 42L23 42L23 41L24 41L24 44L25 44L25 45L26 45L26 46L27 46L27 45L29 45L29 44L30 44L30 45L31 45L31 46L32 46L32 47L30 47L30 46L28 46L28 47L30 47L30 49L31 49L31 50L30 50L30 51L31 51L31 50L32 50L32 53L33 53L33 49L32 49L32 48L35 48L35 49L34 49L34 50L38 50L38 49L37 49L37 47L36 47L36 46L37 46L37 43L38 43L38 45L39 45L39 46L38 46L38 47L39 47L39 49L40 49L40 50L41 50L41 49L40 49L40 48L42 48L42 50L43 50L43 48L47 48L47 46L46 46L46 45L47 45L47 44L46 44L46 45L42 45L42 46L41 46L41 47L40 47L40 44L42 44L42 43L40 43L40 42L43 42L43 41L44 41L44 42L45 42L45 41L44 41L44 38L43 38L43 37L41 37L41 38L43 38L43 39L42 39L42 40L43 40L43 41L39 41L39 42L38 42L38 39L39 39L39 38L38 38L38 39L36 39L36 37L37 37L37 33L39 33L39 34L38 34L38 35L40 35L40 34L41 34L41 36L45 36L45 38L46 38L46 36L45 36L45 35L47 35L47 34L45 34L45 33L44 33L44 35L42 35L42 34L43 34L43 33L42 33L42 32L41 32L41 31L40 31L40 28ZM52 28L52 29L53 29L53 28ZM60 28L60 29L61 29L61 28ZM18 29L18 30L19 30L19 29ZM22 29L22 30L23 30L23 29ZM42 29L42 30L43 30L43 29ZM2 30L2 31L1 31L1 32L3 32L3 30ZM6 30L6 31L7 31L7 30ZM19 31L19 32L21 32L21 31ZM38 31L38 32L40 32L40 33L41 33L41 34L42 34L42 33L41 33L41 32L40 32L40 31ZM48 31L48 32L51 32L51 31ZM57 31L57 32L58 32L58 31ZM65 32L65 34L66 34L66 33L67 33L67 32ZM2 33L2 34L3 34L3 33ZM5 33L5 36L8 36L8 33ZM13 33L13 34L14 34L14 33ZM33 33L33 36L36 36L36 33ZM61 33L61 36L64 36L64 33ZM6 34L6 35L7 35L7 34ZM31 34L31 36L32 36L32 34ZM34 34L34 35L35 35L35 34ZM48 34L48 35L49 35L49 34ZM50 34L50 35L52 35L52 34ZM62 34L62 35L63 35L63 34ZM28 35L28 36L29 36L29 35ZM3 36L3 37L2 37L2 38L3 38L3 37L4 37L4 36ZM38 36L38 37L39 37L39 36ZM30 37L30 38L29 38L29 41L30 41L30 43L32 43L32 44L31 44L31 45L33 45L33 46L34 46L34 47L35 47L35 46L36 46L36 45L35 45L35 43L37 43L37 42L36 42L36 41L37 41L37 40L36 40L36 39L35 39L35 38L33 38L33 37L32 37L32 38L31 38L31 37ZM49 37L49 38L50 38L50 37ZM6 38L6 39L7 39L7 40L6 40L6 41L7 41L7 40L8 40L8 39L7 39L7 38ZM30 38L30 39L31 39L31 40L30 40L30 41L31 41L31 42L32 42L32 41L33 41L33 40L32 40L32 39L33 39L33 38L32 38L32 39L31 39L31 38ZM40 39L40 40L41 40L41 39ZM49 39L49 40L50 40L50 39ZM52 39L52 40L53 40L53 39ZM22 40L22 41L23 41L23 40ZM31 40L31 41L32 41L32 40ZM35 40L35 41L34 41L34 42L33 42L33 45L34 45L34 46L35 46L35 45L34 45L34 42L35 42L35 41L36 41L36 40ZM9 41L9 42L10 42L10 41ZM64 42L64 43L65 43L65 42ZM17 43L17 44L18 44L18 43ZM21 43L21 44L22 44L22 43ZM39 43L39 44L40 44L40 43ZM44 43L44 44L45 44L45 43ZM11 44L11 45L12 45L12 44ZM26 44L26 45L27 45L27 44ZM66 44L66 45L67 45L67 44ZM6 45L6 46L7 46L7 45ZM64 45L64 46L65 46L65 45ZM42 46L42 47L45 47L45 46ZM15 47L15 48L16 48L16 47ZM26 47L26 48L27 48L27 47ZM28 48L28 49L29 49L29 48ZM9 49L9 50L10 50L10 49ZM19 49L19 51L20 51L20 50L21 50L21 51L22 51L22 50L21 50L21 49ZM44 49L44 50L45 50L45 49ZM51 49L51 50L52 50L52 49ZM0 50L0 51L2 51L2 50ZM15 51L15 52L16 52L16 51ZM62 51L62 52L63 52L63 51ZM13 53L13 54L14 54L14 53ZM49 53L49 54L50 54L50 53ZM34 54L34 55L35 55L35 54ZM55 55L55 57L56 57L56 59L57 59L57 58L59 58L59 57L60 57L60 56L59 56L59 55L57 55L57 56L56 56L56 55ZM40 56L40 58L41 58L41 56ZM22 57L22 58L23 58L23 57ZM30 57L30 58L31 58L31 59L32 59L32 58L31 58L31 57ZM62 57L62 58L63 58L63 57ZM66 57L66 58L67 58L67 57ZM42 58L42 59L43 59L43 58ZM46 59L46 60L47 60L47 61L46 61L46 62L47 62L47 61L48 61L48 60L47 60L47 59ZM58 59L58 60L59 60L59 59ZM3 60L3 61L5 61L5 60ZM56 60L56 61L57 61L57 60ZM66 60L66 61L65 61L65 64L66 64L66 63L67 63L67 62L66 62L66 61L67 61L67 60ZM26 61L26 62L27 62L27 61ZM33 61L33 64L36 64L36 61ZM61 61L61 64L64 64L64 61ZM22 62L22 63L23 63L23 62ZM34 62L34 63L35 63L35 62ZM62 62L62 63L63 63L63 62ZM55 63L55 65L53 65L53 66L56 66L56 64L57 64L57 63ZM13 64L13 65L14 65L14 64ZM18 64L18 65L19 65L19 64ZM49 64L49 65L50 65L50 64ZM11 65L11 67L12 67L12 65ZM40 65L40 66L41 66L41 65ZM60 65L60 66L61 66L61 65ZM9 66L9 67L10 67L10 66ZM16 66L16 69L17 69L17 66ZM23 66L23 67L24 67L24 66ZM31 66L31 67L32 67L32 66ZM45 66L45 67L47 67L47 66ZM20 67L20 68L21 68L21 67ZM60 68L60 69L61 69L61 68ZM62 68L62 69L64 69L64 68ZM0 0L0 7L7 7L7 0ZM1 1L1 6L6 6L6 1ZM2 2L2 5L5 5L5 2ZM62 0L62 7L69 7L69 0ZM63 1L63 6L68 6L68 1ZM64 2L64 5L67 5L67 2ZM0 62L0 69L7 69L7 62ZM1 63L1 68L6 68L6 63ZM2 64L2 67L5 67L5 64Z" fill="#000000"/></g></g></svg>
